<svg xmlns="http://www.w3.org/2000/svg" viewBox="0 0 238.3 113"><defs><style>.cls-1{fill:#39607a}.cls-2{fill:#008fb4}.cls-3{fill:#fff}</style></defs><g id="Layer_2" data-name="Layer 2"><g id="Layer_1-2" data-name="Layer 1"><path class="cls-1" d="M4.6 38.3c-3.1 0-4.6-1.5-4.6-4.6v-4.5c0-3.1 1.5-4.6 4.6-4.6h55.1c3.1 0 4.6 1.5 4.6 4.6v4.5c0 3.1-1.5 4.6-4.6 4.6z"/><path class="cls-2" d="M115.4 113c-3.1 0-4.7-1.6-4.7-4.6v-4.5c0-3.1 1.6-4.6 4.7-4.6h12.7c3.1 0 4.6 1.5 4.6 4.6v4.5c0 3-1.5 4.6-4.6 4.6z"/><path class="cls-3" d="M42.4 113c-3.1 0-4.6-1.6-4.6-4.6v-4.5c0-3.1 1.5-4.6 4.6-4.6h52.2c3 0 4.6 1.5 4.6 4.6v4.5c0 3-1.6 4.6-4.6 4.6z"/><path class="cls-2" d="M59.5 13.8c-3.1 0-4.7-1.6-4.7-4.6V4.7c0-3.1 1.6-4.6 4.7-4.6h89.4c3.1 0 4.6 1.5 4.6 4.6v4.5c0 3-1.5 4.6-4.6 4.6zm-28.6 49c-3.1 0-4.6-1.5-4.6-4.6v-4.5c0-3.1 1.5-4.6 4.6-4.6h89.4c3.1 0 4.7 1.5 4.7 4.6v4.5c0 3.1-1.6 4.6-4.7 4.6z"/><path class="cls-3" d="M233 99.2h-47.4V62.9H210c3.4 0 5.3-1.8 5.3-5.3v-3.2c0-3.5-1.9-5.3-5.3-5.3h-24.4V13.8h44.7c3.5 0 5.2-2 5.2-5.3V5.3c0-3.5-1.7-5.3-5.2-5.3h-55.1c-3.5 0-5.3 1.8-5.3 5.3v43.8h-29.5c-3.1 0-4.7 1.5-4.7 4.6v4.5c0 3.1 1.6 4.6 4.7 4.6h29.5v44.9c0 3.5 1.8 5.3 5.3 5.3H233c3.5 0 5.3-1.8 5.3-5.3v-3.2c0-3.5-1.8-5.3-5.3-5.3zM80.2 38.3c-3 0-4.6-1.5-4.6-4.6v-4.5c0-3.1 1.6-4.6 4.6-4.6h12.6c3.1 0 4.7 1.5 4.7 4.6v4.5c0 3.1-1.6 4.6-4.7 4.6z"/><path class="cls-1" d="M71.1 87.9c-3.1 0-4.6-1.5-4.6-4.6v-4.5c0-3.1 1.5-4.6 4.6-4.6h66.2c3 0 4.6 1.5 4.6 4.6v4.5c0 3.1-1.6 4.6-4.6 4.6z"/></g></g></svg>