<svg xmlns="http://www.w3.org/2000/svg" viewBox="0 0 777.2 116.8">
  <defs>
    <style>
      .cls-1 {
        fill: #003644;
      }

      .cls-2 {
        fill: #39607a;
      }

      .cls-3 {
        fill: #008fb4;
      }
    </style>
  </defs>
  <title>Entota_Main</title>
  <g id="Layer_2" data-name="Layer 2">
    <g id="Layer_1-2" data-name="Layer 1">
      <g>
        <path class="cls-1" d="M260.3,7.2c0-3.5,1.7-5.3,5.2-5.3h6.1A6.6,6.6,0,0,1,278,5.4l48.2,70c4,6,9.3,16.3,9.3,16.3h.3s-1-10.1-1-16.3V7.2c0-3.5,1.9-5.3,5.3-5.3h5.1c3.5,0,5.3,1.8,5.3,5.3V109.6c0,3.5-1.8,5.3-5.3,5.3h-6.1a6.4,6.4,0,0,1-6.2-3.5L284.6,41.6c-4-6.2-9.3-16.5-9.3-16.5H275s.9,10.1.9,16.5v68c0,3.5-1.7,5.3-5.2,5.3h-5.2c-3.5,0-5.2-1.8-5.2-5.3Z"/>
        <path class="cls-1" d="M409.2,15.7H375.6c-3.6,0-5.3-1.9-5.3-5.3V7.2c0-3.5,1.7-5.3,5.3-5.3h82.9c3.3,0,5.1,1.8,5.1,5.3v3.2c0,3.4-1.8,5.3-5.1,5.3H424.9v93.9c0,3.5-2,5.3-5.3,5.3h-5.3c-3.4,0-5.1-1.8-5.1-5.3Z"/>
        <path class="cls-1" d="M528.8,0c33.6,0,57.9,25.1,57.9,57.6s-24.3,59.2-57.9,59.2-58.1-25.9-58.1-59.2S495.2,0,528.8,0Zm0,102.3c24,0,41.6-19.4,41.6-44.7s-17.6-43-41.6-43S487,33.1,487,57.6,504.8,102.3,528.8,102.3Z"/>
        <path class="cls-1" d="M632.8,15.7H599.2c-3.5,0-5.3-1.9-5.3-5.3V7.2c0-3.5,1.8-5.3,5.3-5.3h82.9c3.4,0,5.1,1.8,5.1,5.3v3.2c0,3.4-1.7,5.3-5.1,5.3H648.5v93.9c0,3.5-1.9,5.3-5.3,5.3h-5.3c-3.3,0-5.1-1.8-5.1-5.3Z"/>
        <path class="cls-1" d="M720.1,6.2c1-3,2.9-4.3,5.9-4.3h7.7a5.6,5.6,0,0,1,5.9,4.3l37.2,102.6c1.2,3.7-.5,6.1-4.4,6.1H767a5.6,5.6,0,0,1-5.9-4.3L751,82.4H708.4l-9.9,28.2a5.5,5.5,0,0,1-5.7,4.3h-5.5c-4,0-5.6-2.4-4.3-6.1Zm26.7,63.1L734.4,33.4c-2-5.7-4.4-16-4.4-16h-.3s-2.5,10.3-4.5,16L712.6,69.3Z"/>
        <path class="cls-2" d="M4.6,40.2C1.5,40.2,0,38.7,0,35.6V31.1c0-3.1,1.5-4.6,4.6-4.6H59.7c3.1,0,4.6,1.6,4.6,4.6v4.5c0,3.1-1.5,4.6-4.6,4.6Z"/>
        <path class="cls-3" d="M115.4,114.9c-3.1,0-4.7-1.5-4.7-4.6v-4.5c0-3.1,1.6-4.6,4.7-4.6h12.7c3.1,0,4.6,1.5,4.6,4.6v4.5c0,3.1-1.5,4.6-4.6,4.6Z"/>
        <path class="cls-1" d="M42.4,114.9c-3.1,0-4.6-1.5-4.6-4.6v-4.5c0-3.1,1.5-4.6,4.6-4.6H94.6c3,0,4.6,1.5,4.6,4.6v4.5c0,3.1-1.6,4.6-4.6,4.6Z"/>
        <path class="cls-3" d="M59.5,15.7c-3.1,0-4.7-1.5-4.7-4.6V6.6c0-3.1,1.6-4.6,4.7-4.6h89.4c3.1,0,4.6,1.5,4.6,4.6v4.5c0,3.1-1.5,4.6-4.6,4.6Z"/>
        <path class="cls-3" d="M30.9,64.7c-3.1,0-4.6-1.5-4.6-4.6V55.6c0-3,1.5-4.6,4.6-4.6h89.4c3.1,0,4.7,1.6,4.7,4.6v4.5c0,3.1-1.6,4.6-4.7,4.6Z"/>
        <path class="cls-1" d="M233,101.1H185.6V64.8H210c3.4,0,5.3-1.8,5.3-5.3V56.3c0-3.5-1.9-5.3-5.3-5.3H185.6V15.7h44.7c3.5,0,5.2-1.9,5.2-5.3V7.2c0-3.5-1.7-5.3-5.2-5.3H175.2c-3.5,0-5.3,1.8-5.3,5.3V51H140.4c-3.1,0-4.7,1.6-4.7,4.6v4.5c0,3.1,1.6,4.6,4.7,4.6h29.5v44.9c0,3.5,1.8,5.3,5.3,5.3H233c3.5,0,5.3-1.8,5.3-5.3v-3.2C238.3,102.9,236.5,101.1,233,101.1Z"/>
        <path class="cls-1" d="M80.2,40.2c-3,0-4.6-1.5-4.6-4.6V31.1c0-3.1,1.6-4.6,4.6-4.6H92.8c3.1,0,4.7,1.6,4.7,4.6v4.5c0,3.1-1.6,4.6-4.7,4.6Z"/>
        <path class="cls-2" d="M71.1,89.8c-3.1,0-4.6-1.5-4.6-4.6V80.7c0-3,1.5-4.6,4.6-4.6h66.2c3,0,4.6,1.6,4.6,4.6v4.5c0,3.1-1.6,4.6-4.6,4.6Z"/>
      </g>
    </g>
  </g>
</svg>
